# xmcd
#
# Track frame offsets: 
#        150
#        15745
#        35300
#        50370
#        68042
#        82280
#        94252
#        117782
#        131572
#        144980
#        164535
#        178090
#        197497
#        210375
#        237425
#
# Disc length: 3335 seconds
#
# Revision: 0
# Processed by: cddbd v1.5.2PL0 Copyright (c) Steve Scherf et al.
# Submitted via: ExactAudioCopy v1.0b4
#
DISCID=ce0d050f
DTITLE=Blues Down Town - Everlasting Blues
DYEAR=2003
DGENRE=Blues
TTITLE0=Tennessee Woman
TTITLE1=You Got To Be Crazy
TTITLE2=Mississippi Steamboat
TTITLE3=Bad Luck Boy
TTITLE4=You Should Have Listened (To My Advise)
TTITLE5=Bayou Bounce
TTITLE6=Everlasting Love
TTITLE7=You Better Watch Yourself
TTITLE8=So Unhappy
TTITLE9=Stuck In Quicksand
TTITLE10=What Do You Do
TTITLE11=West Winds Are Blowing
TTITLE12=Juke
TTITLE13=Honey Bee (Bonus Track)
TTITLE14=Further On Up The Road (Bonus Track)
EXTD=
EXTT0=
EXTT1=
EXTT2=
EXTT3=
EXTT4=
EXTT5=
EXTT6=
EXTT7=
EXTT8=
EXTT9=
EXTT10=
EXTT11=
EXTT12=
EXTT13=
EXTT14=
PLAYORDER=
